<?xml version="1.0" encoding="UTF-8"?>
<svg id="_圖層_1" data-name=" 圖層 1" xmlns="http://www.w3.org/2000/svg" viewBox="0 0 563.41 138.95">
  <path d="M51.74,62.7v76.25h-15.22V47.48l6.06,10.32h46.45c11.57.17,20.9,9.32,20.9,20.9v60.25h-15.22v-60.25c0-8.87-7.13-16-16-16h-26.96"/>
  <path d="M114.95,62.7h27.61v60.9c0,8.44,6.78,15.35,15.22,15.35h44.12v-4.9h-33.8c-5.74,0-10.32-4.78-10.32-10.51v.06-60.9h35.22l8.77-15.22h-43.99V0h-15.22v47.48h-27.61v15.22"/>
  <polyline points="363.57 57.8 381.24 57.8 334.41 138.95 287.58 57.8 293.26 57.8 328.48 118.82 363.57 57.8"/>
  <polyline points="405.63 57.8 390.4 57.8 390.4 138.95 405.63 138.95 405.63 57.8"/>
  <polyline points="414.79 138.95 432.33 138.95 467.56 77.93 502.65 138.95 508.32 138.95 461.49 57.8 414.79 138.95"/>
  <polyline points="519.29 138.95 519.29 134.05 563.41 134.05 563.41 138.95 519.29 138.95"/>
  <polyline points="0 138.95 0 0 15.23 0 15.23 138.95 0 138.95"/>
  <polyline points="394.79 40.25 405.63 29.55 391.44 15.22 380.6 26.06 394.79 40.25"/>
  <path d="M272.7,56.35l-37.74,65.38c9.36,3.43,19.8,2.07,27.97-3.64,8.17-5.71,13.04-15.05,13.04-25.01h15.22c0,21.19-14.55,39.6-35.17,44.5s-41.89-5.01-51.42-23.94c-9.53-18.93-4.81-41.92,11.41-55.56,16.21-13.64,39.67-14.36,56.69-1.74h0ZM230.3,66.6c-9.53,5.46-15.4,15.61-15.36,26.6.04,10.98,5.98,21.1,15.56,26.48l30.51-52.85c-9.45-5.6-21.18-5.69-30.71-.23h0Z"/>
</svg>