<?xml version="1.0" encoding="UTF-8"?>
<svg id="_圖層_1" data-name="圖層 1" xmlns="http://www.w3.org/2000/svg" viewBox="0 0 2198.76 483.57">
  <defs>
    <style>
      .cls-1 {
        fill: #f29539;
      }
    </style>
  </defs>
  <path d="M924.02,293.62v189.96h-37.93v-227.88l15.11,25.71h115.71c28.82.42,52.07,23.22,52.07,52.07v150.1h-37.93v-150.1c0-22.1-17.76-39.86-39.86-39.86h-67.18"/>
  <path d="M1081.52,293.62h68.78v151.71c0,21.04,16.89,38.25,37.93,38.25h109.92v-12.21h-84.21c-14.29,0-25.71-11.91-25.71-26.2v.16-151.71h87.75l21.86-37.93h-109.6v-118.28h-37.93v118.28h-68.78v37.93"/>
  <polyline points="1700.89 281.4 1744.92 281.4 1628.25 483.57 1511.57 281.4 1525.72 281.4 1613.46 433.43 1700.89 281.4"/>
  <polyline points="1805.67 281.4 1767.74 281.4 1767.74 483.57 1805.67 483.57 1805.67 281.4"/>
  <polyline points="1828.49 483.57 1872.2 483.57 1959.95 331.54 2047.37 483.57 2061.52 483.57 1944.84 281.4 1828.49 483.57"/>
  <polyline points="2088.84 483.57 2088.84 471.36 2198.76 471.36 2198.76 483.57 2088.84 483.57"/>
  <polyline points="795.14 483.57 795.14 137.41 833.06 137.41 833.06 483.57 795.14 483.57"/>
  <polyline class="cls-1" points="1778.67 237.69 1805.67 211.01 1770.31 175.33 1743.31 202.33 1778.67 237.69"/>
  <path d="M1474.51,277.79l-94.03,162.89c23.31,8.54,49.33,5.16,69.69-9.06,20.36-14.22,32.48-37.49,32.48-62.32h37.93c0,52.79-36.26,98.66-87.61,110.86-51.36,12.2-104.37-12.48-128.1-59.63-23.73-47.15-11.97-104.43,28.42-138.41,40.39-33.99,98.84-35.78,141.23-4.33ZM1368.87,303.34c-23.75,13.59-38.36,38.9-38.26,66.27.1,27.36,14.91,52.56,38.76,65.97l76.01-131.66c-23.54-13.95-52.76-14.17-76.51-.58Z"/>
  <polyline class="cls-1" points="546.42 185.49 581.26 150.97 535.35 105.05 500.83 139.57 546.42 185.49"/>
  <polygon points="703.05 483.57 535.35 483.57 377.09 209.71 218.83 483.57 0 483.57 279.4 0 472.5 334.76 544.79 209.71 703.05 483.57 703.05 483.57"/>
</svg>